<?xml version="1.0" encoding="utf-8"?>
<!-- Generator: Adobe Illustrator 21.1.0, SVG Export Plug-In . SVG Version: 6.00 Build 0)  -->
<svg version="1.1" id="Layer_1" xmlns="http://www.w3.org/2000/svg" xmlns:xlink="http://www.w3.org/1999/xlink" x="0px" y="0px"
	 viewBox="0 0 387.8 431.9" style="enable-background:new 0 0 387.8 431.9;" xml:space="preserve">
<style type="text/css">
	.st0{fill:#0D1B3A;}
	.st1{fill:#AA2D29;}
	.st2{fill:#F5A800;}
	.st3{fill:#FFFFFF;}
	.st4{fill:#0033A1;}
</style>
<g id="Layer_2">
	<g id="Layer_1-2">
		<path class="st0" d="M97.7,282.1c-4.6-12.4-13.8-23.8-16.2-35.4c-2.8-15.6-0.7-28.5,9.9-39.3c-2.3,2.5-9.9,8.4-13.6,4.1
			c-1.6-2-1-5.6-0.2-7.6c3.6-12.2,2.6-34.5,2.1-34.3s-0.7,15.3-1.7,21c-0.7,2.8-2.4,10.9-5.1,11.4s-8.1-9-11.3-10.5
			c3.4,9.1,9.1,15.8,9.4,25.9c-0.2,8.1-0.3,16.6-0.5,24.3c-0.3,14.5,13.1,31.3,6.9,45.2C81.7,283.8,97.7,282.1,97.7,282.1z"/>
		<path class="st0" d="M91.7,211c4.3,10.7,9.9,2.1,16.3,7.1c-2-1.6-2.5-5.9-4.9-7.1c-1.9-1.5-4.4-2.2-6.8-1.7L91.7,211z"/>
		<path class="st0" d="M101.6,201.8c2.2-4.6-0.3-6.6,2.7-12.7c-4.1,7-10,7.6-8.9,17.2C95.4,206.3,99.4,206.4,101.6,201.8z"/>
		<path class="st0" d="M94.7,199.5c2-4.5-6.1-18.1-6.1-18.1s-3.3,8.2-3.2,12.2c0.6,4.4,4.6,7.9,5.1,12.3
			C92.3,204.1,93.7,201.9,94.7,199.5z"/>
		<path class="st0" d="M82.2,175.3c11,4.6,10.7-12.4,14-18.2c-5.5,3.3-8.8,3.7-11.4,9.8c-1.1,3.1-0.9,6-3,8.4L82.2,175.3z"/>
		<path class="st0" d="M86.3,159.2c1.6-5.6-5.8-13.4-6.8-20.6c-0.2,5.2-4.8,9.8-4.7,14.6c-0.2,5.6,6.2,9.1,5.9,15.1
			C83.4,165.7,85.3,162.6,86.3,159.2z"/>
		<path class="st0" d="M77.4,171.1c5.5-11.8-12.1-12.5-14.4-20.5c0.6,8,0.3,15.7,5.4,19.3S77.4,171.1,77.4,171.1z"/>
		<path class="st0" d="M69.8,189.4c2.3-5.8-2.6-8.1-2.8-15.7c-4.1,7.4-4.4,14-1.8,18.7C67.8,197.2,67.5,195.2,69.8,189.4z"/>
		<path class="st0" d="M60.7,190.1c-3.5-10.4-17.6-10.7-19.1-21.1c0.1,14.9,6,17.7,12,20.4S60.7,190.1,60.7,190.1z"/>
		<path class="st0" d="M48.2,193.4c5.7-1.9,11.3,4,11.3,4s-7,8.9-13,6.1c-4.9-2.1-4.2-8-5.3-11.9C41.1,191.6,42.5,195.4,48.2,193.4z
			"/>
		<path class="st0" d="M292.1,282.1c4.6-12.4,13.8-23.8,16.1-35.4c2.8-15.6,0.7-28.5-10-39.3c2.3,2.5,9.9,8.4,13.6,4.1
			c1.6-2,1-5.6,0.2-7.6c-3.5-12.2-2.6-34.5-2.1-34.3s0.7,15.3,1.7,21c0.7,2.8,2.4,10.9,5.1,11.4s8.1-9,11.3-10.5
			c-3.4,9.1-9.1,15.8-9.4,25.9c0.1,8.1,0.4,16.6,0.5,24.3c0.3,14.5-13.1,31.3-6.9,45.2C308.2,283.8,292.1,282.1,292.1,282.1z"/>
		<path class="st0" d="M298.1,211c-4.2,10.7-9.9,2.1-16.3,7.1c2-1.6,2.5-5.9,4.9-7.1c1.9-1.5,4.4-2.2,6.8-1.7L298.1,211z"/>
		<path class="st0" d="M288.3,201.8c-2.2-4.6,0.3-6.6-2.7-12.7c4.1,7,10,7.6,8.9,17.2C294.5,206.3,290.5,206.4,288.3,201.8z"/>
		<path class="st0" d="M295.2,199.5c-2-4.5,6.1-18.1,6.1-18.1s3.3,8.2,3.1,12.2c-0.5,4.4-4.5,7.9-5.1,12.3
			C297.6,204.1,296.2,201.9,295.2,199.5z"/>
		<path class="st0" d="M307.7,175.3c-11,4.6-10.7-12.4-14-18.2c5.5,3.3,8.9,3.7,11.4,9.8c1.1,3.1,0.9,6,3,8.4L307.7,175.3z"/>
		<path class="st0" d="M303.5,159.2c-1.6-5.6,5.8-13.4,6.8-20.6c0.2,5.2,4.8,9.8,4.6,14.6c0.2,5.6-6.2,9.1-6,15.1
			C306.5,165.7,304.6,162.6,303.5,159.2z"/>
		<path class="st0" d="M312.5,171.1c-5.5-11.8,12.1-12.5,14.3-20.5c-0.6,8-0.3,15.7-5.4,19.3S312.5,171.1,312.5,171.1z"/>
		<path class="st0" d="M320.1,189.4c-2.3-5.8,2.6-8.1,2.8-15.7c4.1,7.4,4.4,14,1.8,18.7S322.3,195.2,320.1,189.4z"/>
		<path class="st0" d="M329.2,190.1c3.5-10.4,17.6-10.7,19.1-21.1c-0.1,14.9-6,17.7-12,20.4S329.2,190.1,329.2,190.1z"/>
		<path class="st0" d="M341.7,193.4c-5.7-1.9-11.3,4-11.3,4s7,8.9,13,6.1c4.9-2.1,4.2-8,5.3-11.9
			C348.8,191.6,347.4,195.4,341.7,193.4z"/>
		<path class="st1" d="M0.2,308c0,0,96.7-40.1,190.1-40.8c95.4-0.7,197.6,39.9,197.6,39.9s-85.4-27.7-194.3-28.1S0.2,308,0.2,308z"
			/>
		<path class="st0" d="M301.7,45.6L189.1,0l-1.1,21L87.3,47.4c0,0,0,9.6,1.5,25.7v1.1c2.8,82,25.2,139.1,89.1,189.8l15.6,12.4
			l15.7-12.4c63.9-53.5,83.5-110.5,89.1-156.6C300.7,86.9,301.9,66.2,301.7,45.6z"/>
		<polygon class="st1" points="291.3,52.1 276.7,126.7 199.7,120 196,15.8 		"/>
		<polygon class="st2" points="189.4,33.8 189.4,126.8 113.8,128 95.6,57.6 		"/>
		<path class="st3" d="M220.1,51.9l0.2,31.3c0,0,7.9,1.7,12.1,5.6c2.6,2.4,4.7,5.3,6.4,8.4l0.4-32.1c-2.1-4.3-5.4-7.8-9.6-10.1
			C222.8,51.4,220.1,51.9,220.1,51.9z"/>
		<path class="st3" d="M213,59l4.8-0.2l0.2,27.2c0,0,7.6,0.7,12.7,5.3c3.1,2.9,5.4,6.6,6.8,10.7c0,0-1.3-3.3-12.2-6.4
			c-8.3-2.3-12.1-1.4-12.1-1.4L213,59z"/>
		<path class="st3" d="M207.4,67.3h3.2l0.1,29c4.9-0.2,9.7,0.4,14.4,1.8c8.4,2.4,10.4,4.7,10.4,4.7l-28,0.2L207.4,67.3z"/>
		<path class="st3" d="M261.9,51.9l-0.2,31.3c0,0-7.9,1.7-12.1,5.6c-2.6,2.4-4.7,5.3-6.4,8.4l-0.4-32.1c2.1-4.3,5.4-7.8,9.6-10.1
			C259.1,51.4,261.9,51.9,261.9,51.9z"/>
		<path class="st3" d="M268.9,59l-4.8-0.2L263.9,86c0,0-7.6,0.7-12.7,5.3c-3.1,2.9-5.4,6.6-6.8,10.7c0,0,1.3-3.3,12.2-6.4
			c8.3-2.3,12.1-1.4,12.1-1.4L268.9,59z"/>
		<path class="st3" d="M274.6,67.3h-3.2l-0.1,29c-4.9-0.2-9.7,0.4-14.4,1.8c-8.4,2.4-10.5,4.7-10.5,4.7l28,0.2L274.6,67.3z"/>
		<polygon class="st3" points="186.1,132.4 190.8,235.3 123.2,191.9 113.4,142.8 		"/>
		<path class="st0" d="M139.6,150.2l14.9-8.1c0,0,5.1,17.1,5.9,20s2.1,7.1-1.1,9.6s-9.4,1.2-10.1-2c-0.7-2.8,0.9-5.7,3.7-6.4
			c0,0,0,0,0.1,0c1.9-0.4,3.9-0.4,5.8,0l-4.1-14.2l-11.8,6.7c0,0,5.5,18.6,5.5,19s0.1,6.3-5.7,6.3s-7-4-6.1-6.5
			c1-2.2,3.2-3.6,5.6-3.7c1.1-0.1,2.2,0,3.2,0.2L139.6,150.2z"/>
		<path class="st0" d="M150.2,211.2c0,0,13.3-22.2,15.4-24.8s2.8-2.5,2.8-2.5c0.9,0.3,1.8,0.6,2.8,0.8c0.6,0,2.6-0.1,2.6-0.1
			s-6.6,17.6-9.5,22.6s-3.3,11.7-3.3,11.7L150.2,211.2z"/>
		<path class="st0" d="M179.2,159.3c0,0,1.7,3.5-2.6,6.2s-14.5,8.8-11.4,12.8s8.9,6,12.9,3.1s5.2-10,4-15S179.2,159.3,179.2,159.3z"
			/>
		<polygon class="st4" points="284.3,136.1 254,205.2 197.1,222.6 199.7,132.1 		"/>
		<path class="st3" d="M236.9,210.5c-1.8-0.1-3.7-0.4-5.5-0.9c1.2-2.6,2.8-5,4.6-7.2c2.5,2.2,5.3,4.2,8.3,5.8l4.1-1.3
			c-3.7-2-7.2-4.3-10.4-7c2.5-2.8,5.4-5.3,8.6-7.3l6.9,12.7l0.5-0.2l1.4-3.2l-5.9-10.9c3.4-1.6,7.1-2.7,10.8-3.3
			c0.1,0.8,0.2,1.6,0.2,2.4l2.6-5.9c-0.6-5.6-2.2-11-4.6-16.1l11.7-6.3c0.5,1.1,1,2.1,1.4,3.2l1.9-4.4c-0.3-0.6-0.7-1.3-1-1.9
			c-10-18.1-32.6-24.6-50.7-14.7c-18.1,10-24.6,32.6-14.7,50.7c4.9,8.8,13.1,15.3,22.8,18L236.9,210.5z M235.7,198.1
			c-4.1-3.4-7.6-7.5-10.4-12l13.7-7.4l5.9,10.9C241.4,191.9,238.3,194.8,235.7,198.1z M237.4,175.8l-13.7,7.4
			c-2.3-4.8-3.8-9.9-4.4-15.2c4.2-0.4,8.3-1.4,12.2-3.1L237.4,175.8z M234.4,163.4c3.5-2.3,6.7-5.2,9.2-8.5c4.1,3.4,7.6,7.5,10.4,12
			l-13.7,7.4L234.4,163.4z M260,184.9c-4.2,0.4-8.3,1.4-12.2,3.1l-5.9-10.9l13.7-7.4C257.9,174.5,259.3,179.6,260,184.9z
			 M268.6,158.9l-11.7,6.3c-3.1-4.8-6.8-9.1-11.2-12.8c2-2.5,3.8-5.3,5.3-8.1C258.4,147,264.6,152.1,268.6,158.9L268.6,158.9z
			 M247.9,143.4c-1.2,2.5-2.8,4.9-4.5,7.1c-3.4-2.8-7-5.2-11-7.1C237.5,142.1,242.8,142.1,247.9,143.4L247.9,143.4z M228.1,144.6
			c4.8,2.2,9.3,5,13.4,8.3c-2.5,2.9-5.4,5.4-8.7,7.5l-7.9-14.5C225.9,145.4,227,144.9,228.1,144.6L228.1,144.6z M219.2,149.4
			c0.9-0.7,1.8-1.4,2.8-1.9l7.9,14.5c-3.5,1.6-7.2,2.7-11,3.2C218.4,159.9,218.5,154.6,219.2,149.4L219.2,149.4z M215.8,152.4
			c-0.6,4.4-0.6,8.8,0,13.1c-2.8,0.3-5.6,0.3-8.4-0.1C209.1,160.5,212,155.9,215.8,152.4L215.8,152.4z M206.5,168.6
			c3.2,0.3,6.5,0.3,9.7,0c0.7,5.6,2.3,11.1,4.6,16.3l-11.7,6.3C205.6,184.2,204.7,176.2,206.5,168.6L206.5,168.6z M210.8,194.1
			l11.7-6.3c3,4.8,6.8,9.2,11.2,12.8c-2,2.5-3.8,5.3-5.3,8.1C220.9,206,214.7,200.9,210.8,194.1L210.8,194.1z"/>
		<path class="st0" d="M0,401.4h2.8v12.1h16.9v-12.1h2.8v29.8h-2.8v-15.4H2.8v15.4H0V401.4z"/>
		<path class="st0" d="M39.6,401.4h2.8v29.8h-2.8V401.4z"/>
		<path class="st0" d="M74.1,403.1c-7.8,0-13,5.6-13,13.5c-0.1,7,5.4,12.7,12.4,12.8c0.2,0,0.4,0,0.6,0c6.9,0,11.8-4.4,11.8-10.7
			H75.3v-2.3h13.8v0.4c0,9.4-5.8,15.1-15.2,15.1S58,425.6,58,416.3c0-9,6.5-15.6,15.7-15.6c6.2,0,10.8,2.1,13.3,6.5l-2,1.7
			C82.6,405.2,78.5,403,74.1,403.1z"/>
		<path class="st0" d="M104.4,401.4h2.8v12.1h16.9v-12.1h2.8v29.8h-2.8v-15.4h-16.9v15.4h-2.8V401.4z"/>
		<path class="st0" d="M165.9,424.9c0.8,2.8,3.4,4.8,6.3,4.6c3.9,0,6.3-2.3,6.3-6.3c0-3.7-2.3-5-5.9-6.9c-4.9-2.5-7.8-4.4-7.8-8.5
			s3.3-7.2,8-7.2c2.8-0.2,5.5,1.3,6.9,3.8l-2.2,1.3c-1-1.8-2.9-2.8-4.9-2.6c-3.1,0-5,1.9-5,4.8c0,3.6,2.8,4.5,6.9,6.6
			c4.6,2.4,6.6,4.3,6.6,8.8c0,5.3-3.5,8.7-9.1,8.7c-3.8,0.2-7.3-2.2-8.6-5.8L165.9,424.9z"/>
		<path class="st0" d="M211.9,403.1c-8.1,0-13.6,5.5-13.6,13.2c0,8,5.7,13.2,13.2,13.2c3.6,0,7.1-1.2,10-3.5v3.2
			c-3,1.8-6.4,2.8-9.9,2.8c-9.3,0-16.3-6.3-16.3-15.7c0-9.1,7.1-15.6,16.3-15.6c3.6-0.1,7.2,1,10.1,3.1l-0.1,3
			C219,404.4,215.5,403.1,211.9,403.1z"/>
		<path class="st0" d="M237.2,401.4h2.8v12.1h16.9v-12.1h2.8v29.8h-2.8v-15.4H240v15.4h-2.8L237.2,401.4z"/>
		<path class="st0" d="M303.7,427.3c-3.2,3-7.4,4.6-11.7,4.6c-4.4,0-8.6-1.6-11.7-4.6c-6.1-5.6-6.5-15.1-1-21.2c0.3-0.3,0.6-0.7,1-1
			c6.7-6,16.8-6,23.5,0c6.1,5.6,6.5,15.1,1,21.2C304.4,426.7,304.1,427,303.7,427.3L303.7,427.3z M305.6,416.3
			c0.3-7.5-5.6-13.8-13.2-14.1s-13.8,5.6-14.1,13.2s5.6,13.8,13.2,14.1c0.2,0,0.3,0,0.5,0C299.4,429.6,305.5,423.7,305.6,416.3
			C305.6,416.3,305.6,416.3,305.6,416.3L305.6,416.3z"/>
		<path class="st0" d="M351.1,427.3c-3.2,3-7.4,4.6-11.8,4.6c-4.4,0-8.6-1.6-11.7-4.6c-6.1-5.6-6.5-15.1-1-21.2c0.3-0.3,0.6-0.7,1-1
			c6.7-6,16.8-6,23.5,0c6.1,5.6,6.5,15.1,1,21.2C351.7,426.7,351.4,427,351.1,427.3z M352.9,416.3c0.2-7.5-5.7-13.8-13.2-14.1
			s-13.8,5.7-14.1,13.2c-0.2,7.5,5.7,13.8,13.2,14.1c0.1,0,0.3,0,0.4,0c7.4,0.2,13.5-5.7,13.7-13.1C353,416.4,353,416.3,352.9,416.3
			L352.9,416.3z"/>
		<path class="st0" d="M371.5,401.4h2.8v27.2H385v2.5h-13.5V401.4z"/>
		<path class="st0" d="M67.6,309.4l-21.9,6.9l15,6.4L60,338.3c0,0,15.6-8.7,20.7-9.2"/>
		<path class="st0" d="M312.9,309l22.4,5.5l-14.5,7.4l1.9,15.4c0,0-16.2-7.7-21.3-7.9"/>
		<path class="st0" d="M60.5,302.7l12.1,24.1c0,0,32.1-13.1,118.8-13S308,327.6,308,327.6l7.7-25.9c0,0-51.9-15.4-124.7-15.2
			C113.6,286.7,60.5,302.7,60.5,302.7z"/>
		<path class="st3" d="M88.9,301.5c-1.5,0.5-1.8,0.8-2.6,3c-0.9,2.5-3.1,9.1-4.9,14.5l-1.2,0.3c-1.7-4.4-4.1-10-5.2-12.6
			c-0.7-1.7-1-1.8-2.6-1.6v-0.9l6.5-1.4v0.9l-0.6,0.2c-1,0.3-1,0.5-0.8,1.4c0.5,1.5,2.4,6,3.9,9.8l0,0c1.2-3.5,2.8-8.4,3.3-10.7
			c0.3-1.5,0.2-1.7-1.1-1.5l-0.6,0.1v-0.9l5.7-1.2L88.9,301.5z"/>
		<path class="st3" d="M95.3,313.6c-1.1,1.8-2.9,3.2-3.7,3.4c-0.6,0.1-1.3-0.2-1.1-2.4l0.3-6.2c0-0.6,0-0.8-0.2-0.8
			c-0.6,0.3-1.1,0.8-1.5,1.3l-0.5-0.6c1.4-1.9,3-3.2,3.9-3.3s1,0.8,0.9,2.2l-0.4,6.5c-0.1,0.7,0,0.9,0.2,0.9
			c0.6-0.4,1.1-0.8,1.5-1.4L95.3,313.6z M93.4,301.1c0.1,0.9-0.5,1.8-1.4,2c-0.7,0.2-1.4-0.2-1.6-0.9c0-0.1,0-0.1,0-0.2
			c-0.2-1,0.5-1.9,1.4-2.1c0.7-0.2,1.4,0.2,1.6,0.9C93.4,301,93.4,301,93.4,301.1z"/>
		<path class="st3" d="M96.3,314.1c-0.1-0.5,0.2-1.1,0.6-1.4c0.4-0.3,0.6-0.3,0.9-0.1c0.8,0.8,1.9,1.2,3,1.2
			c0.7-0.1,1.2-0.7,1.2-1.4c0,0,0,0,0,0c-0.1-0.5-0.5-1-1.9-1.7s-2.8-1.3-3-2.7c-0.1-1.1,0.2-2.1,1-2.9c0.8-0.9,1.8-1.5,2.9-1.8
			c1.3-0.2,2.4,0.4,2.6,1.1c0,0.5-0.2,1-0.6,1.4c-0.3,0.2-0.5,0.3-0.8,0.1c-0.6-0.7-1.5-1-2.4-0.9c-0.6,0-1,0.5-1,1.1
			c0,0.1,0,0.1,0,0.2c0.1,0.7,1,1.2,2.1,1.7c1.7,0.7,2.7,1.4,2.9,2.6c0.4,2.1-2,4.5-4.3,4.9C98.2,315.7,96.5,315.1,96.3,314.1z"/>
		<path class="st3" d="M111.4,310.7c-1.2,1.7-2.9,3.1-3.8,3.3c-0.6,0.1-1.3-0.3-1-2.4l0.5-6.2c0-0.6,0-0.8-0.2-0.8
			c-0.6,0.3-1.1,0.8-1.5,1.3l-0.5-0.7c1.4-1.8,3.1-3.1,4-3.2s1,0.8,0.8,2.2l-0.6,6.4c-0.1,0.7,0,0.9,0.2,0.9
			c0.6-0.3,1.1-0.8,1.5-1.4L111.4,310.7z M109.8,298.2c0.1,1-0.5,1.9-1.5,2c-0.7,0.2-1.4-0.2-1.5-0.9c0-0.1,0-0.1,0-0.2
			c-0.2-1,0.5-1.9,1.5-2.1c0,0,0,0,0,0c0.7-0.2,1.4,0.3,1.5,1C109.8,298.1,109.8,298.1,109.8,298.2z"/>
		<path class="st3" d="M112.9,309c-0.5-2.8,0.6-5.6,2.9-7.2c0.9-0.7,2-1.2,3.1-1.4c2.4-0.4,3.9,1,4.3,3.4c0.4,2.3-0.3,4.7-1.9,6.5
			c-1.1,1.2-2.5,1.9-4,2.2C114.3,312.9,113.2,310.9,112.9,309z M118.7,310.9c1.1-0.7,2-3.4,1.5-6.8c-0.3-1.9-1.1-2.6-2.2-2.5
			c-0.3,0-0.5,0.1-0.8,0.3c-0.8,0.5-2.1,2.8-1.5,6.7c0.3,1.8,1.2,2.7,2.2,2.5C118.2,311.1,118.5,311,118.7,310.9z"/>
		<path class="st3" d="M137.7,307c-1.6,2-3,3-3.9,3.1s-1.2-0.4-1-2.5c0.2-1.9,0.4-3.7,0.6-5.5c0.2-1.4,0-1.6-0.3-1.6
			c-1,0.1-3.3,3.2-4.1,5.1c-0.2,1.3-0.4,3.1-0.5,4.7c-0.8,0.2-1.6,0.5-2.4,0.8l-0.2-0.1c0.3-2.5,0.7-5.5,1-8.5c0.1-0.8,0-1-0.2-1
			c-0.6,0.3-1.1,0.7-1.5,1.3l-0.5-0.7c1.4-1.8,2.9-2.9,3.8-3c0.7-0.1,1.1,0.7,0.8,2.9l-0.2,1.6h0.1c0.9-1.7,2.2-3.1,3.6-4.4
			c0.6-0.5,1.2-0.8,1.9-0.9c0.8-0.1,1.7,0.3,1.3,3.6c-0.2,1.5-0.4,3.2-0.5,4.9c-0.1,0.7,0,0.9,0.2,0.9c0.6-0.3,1.1-0.7,1.5-1.3
			L137.7,307z"/>
		<path class="st3" d="M152.7,292.4c-2,0.3-2,0.5-2.2,2.4l-1.1,10.2c-0.2,1.9-0.1,2.1,2.1,2l-0.1,0.9l-7.2,0.7l0.1-0.9
			c1.9-0.4,2.1-0.6,2.3-2.5l1.1-10.2c0.2-1.9,0-2-2.1-1.9l0.2-0.9l7.2-0.7L152.7,292.4z"/>
		<path class="st3" d="M165.4,304.5c-1.7,1.9-3.2,2.8-4,2.9s-1.2-0.5-0.9-2.6c0.3-1.8,0.6-3.7,0.9-5.5c0.3-1.3,0.1-1.6-0.2-1.6
			c-1,0.1-3.4,3-4.4,4.9c-0.3,1.3-0.6,3.1-0.8,4.7c-0.8,0.2-1.7,0.4-2.5,0.7l-0.2-0.2c0.4-2.5,1-5.5,1.4-8.4c0.1-0.8,0.1-1-0.1-1
			c-0.6,0.3-1.1,0.7-1.6,1.2l-0.5-0.7c1.5-1.8,3.1-2.8,4-2.8c0.7,0,1,0.7,0.6,3l-0.3,1.5h0.1c1-1.6,2.3-3,3.9-4.1
			c0.6-0.4,1.3-0.7,2-0.8c0.8-0.1,1.7,0.4,1.1,3.6c-0.3,1.5-0.5,3.2-0.8,4.9c-0.1,0.7-0.1,0.9,0.1,0.9c0.6-0.3,1.1-0.7,1.6-1.2
			L165.4,304.5z"/>
		<path class="st3" d="M166.4,305.1c0-0.5,0.3-1,0.8-1.3c0.4-0.3,0.7-0.3,0.9,0c0.7,0.9,1.7,1.5,2.8,1.5c0.7,0,1.3-0.5,1.3-1.2
			c0,0,0,0,0,0c0-0.6-0.4-1-1.7-1.9s-2.6-1.6-2.7-3c0-1.1,0.5-2.1,1.4-2.7c0.9-0.8,1.9-1.2,3.1-1.4c1.3-0.1,2.3,0.7,2.4,1.5
			c0,0.5-0.3,1-0.7,1.3c-0.3,0.2-0.6,0.2-0.8,0c-0.5-0.7-1.4-1.2-2.3-1.2c-0.6,0-1.1,0.4-1.1,1c0,0,0,0.1,0,0.1c0,0.7,0.8,1.4,1.9,2
			c1.6,0.9,2.5,1.8,2.6,3c0.1,2.1-2.6,4.1-4.9,4.3C168,307,166.4,306.2,166.4,305.1z"/>
		<path class="st3" d="M181.2,295.1c0.8-0.2,1.6-0.3,2.4-0.4c2.8-0.1,3.9,1.2,3.9,3.6c0,1.9-0.8,3.8-2.1,5.2c-1.3,1.4-3,2.5-4.9,3
			c-0.5,0-1,0-1.4-0.2l-0.6,3.1c-0.2,1.2-0.1,1.4,1.2,1.6h0.7l-0.1,0.9l-6.7,0.5l0.2-0.9c1.5-0.3,1.8-0.5,2.1-2
			c0.8-4.2,1.7-8.3,2.5-12.4c-0.7,0.2-1.4,0.5-2,0.9l-0.3-0.8c0.8-0.5,1.6-1,2.5-1.3l0.3-1.1c0.7-0.7,1.6-1.3,2.5-1.7l0.3,0.1
			L181.2,295.1z M179.3,304.5c0.4,0.5,0.9,0.7,1.4,0.8c1.7,0,3.8-3.5,3.8-6.6c0-2.1-1.1-2.6-2.4-2.5c-0.4,0-0.9,0.1-1.3,0.2
			L179.3,304.5z"/>
		<path class="st3" d="M194.7,303.8c-1.4,1.5-3.4,2.6-4.3,2.6c-0.7,0-1.2-0.5-0.6-2.6l1.5-6c0.1-0.6,0.1-0.8,0-0.8
			c-0.6,0.2-1.2,0.6-1.7,1l-0.4-0.7c1.7-1.6,3.6-2.5,4.5-2.5s0.8,0.9,0.5,2.3l-1.6,6.2c-0.2,0.7-0.1,0.9,0,0.9
			c0.6-0.2,1.2-0.6,1.7-1.1L194.7,303.8z M195.3,291.2c0,1-0.8,1.7-1.8,1.7c0,0,0,0,0,0c-0.7,0.1-1.3-0.5-1.4-1.2c0-0.1,0-0.1,0-0.2
			c0-1,0.8-1.8,1.8-1.8c0,0,0,0,0,0c0.7,0,1.3,0.5,1.4,1.2C195.3,291.1,195.3,291.1,195.3,291.2z"/>
		<path class="st3" d="M200.7,298.8c1.4-2.4,2.8-3.9,3.9-3.9c0.5,0,0.9,0.3,1.2,0.7c0.3,0.4,0.2,1-0.1,1.4c-0.2,0.3-0.5,0.6-0.8,0.9
			c-0.3,0.2-0.5,0.2-0.7,0c-0.3-0.3-0.6-0.4-1-0.5c-0.3,0-0.6,0.2-1.1,0.9c-0.7,0.9-1.3,1.8-1.7,2.9c-0.4,1.5-0.8,3.2-1.1,4.8
			c-0.8,0.1-1.7,0.2-2.5,0.4l-0.2-0.2c0.7-2.6,1.4-5.3,2-8c0.2-0.8,0.2-1.2,0-1.2c-0.6,0.2-1.2,0.5-1.7,1l-0.4-0.7
			c1.5-1.5,3.2-2.4,4.1-2.4s0.9,1.1,0.4,3l-0.3,1L200.7,298.8z"/>
		<path class="st3" d="M214.6,304c-2.4,2.3-4.5,2.8-6.1,2.7c-1.4-0.1-3-0.9-2.9-3.8c0.1-2.5,1.3-4.8,3.4-6.3
			c1.2-0.8,2.6-1.3,4.1-1.4c1.7,0.1,2.6,1.1,2.5,2.3c-0.1,2.6-4.4,3.6-7.1,4.2c0,0.2-0.1,0.5-0.1,0.7c-0.1,1.4,0.3,2.5,1.7,2.6
			c1.5-0.1,2.9-0.7,3.9-1.7L214.6,304z M211,296.7c-0.6,0.4-1.9,1.5-2.3,4.1c3.2-0.7,4.3-1.8,4.4-3c0.1-0.6-0.3-1.2-0.9-1.3
			c0,0-0.1,0-0.1,0C211.6,296.4,211.3,296.5,211,296.7z"/>
		<path class="st3" d="M228.4,305.2c-1.1,1.3-2.7,2.2-4.4,2.4c-0.6,0-1.1-0.5-0.5-2.5l0.4-1.6h-0.1c-1,1.1-2.1,2-3.3,2.8
			c-0.8,0.6-1.7,1-2.7,1c-1.1-0.1-1.9-1.2-1.8-3.3c0.2-2.5,1.5-4.8,3.4-6.4c1.4-1,3.1-1.6,4.9-1.6c0.5,0,1,0.1,1.5,0.3l1-3.5
			c0.3-1,0.1-1.1-1-1.2l-0.7-0.1l0.2-0.8c1.5-0.1,3-0.3,4.5-0.5c0.3,0,0.3,0.2,0.2,0.7c-1.5,4.7-2.8,9.1-4,13.8
			c-0.2,0.7-0.2,0.9,0,0.9c0.7-0.2,1.3-0.5,1.8-1L228.4,305.2z M224.4,301.5l1.1-3.6c-0.6-0.5-1.2-0.7-1.9-0.8
			c-0.5-0.1-1,0.1-1.5,0.3c-1.7,1.1-2.8,4.2-2.9,6.2c-0.1,1.1,0.2,1.6,0.6,1.6C221,305.4,223.5,302.9,224.4,301.5L224.4,301.5z"/>
		<path class="st3" d="M250,309.7l-6.6-0.7l0.3-0.8c1.7,0,1.8-0.3,1.8-1.4c-0.1-0.9-0.1-1.9-0.2-3l-5.1-0.5
			c-0.6,0.8-1.2,1.8-1.8,2.7s-0.6,1.4,1.3,1.8l-0.3,0.9l-5.8-0.6l0.4-0.8c1.6-0.1,1.9-0.2,3.4-2.2l8.9-12l1.3-0.1l0.2,3.7
			c0.1,3.3,0.4,6.6,0.6,9.8c0.1,2,0.3,2.2,2,2.6L250,309.7z M245,296.4L245,296.4c-1.4,1.9-2.7,3.7-4,5.6l4.3,0.5L245,296.4z"/>
		<path class="st3" d="M260.3,308.6c-1.6,1.4-3.7,2.1-5.8,2.1c-1.9-0.2-2.8-1.7-2.5-4c0.3-2.3,1.6-4.4,3.6-5.7
			c1.4-0.9,3-1.4,4.6-1.3c1.2,0.1,2.1,0.9,2,1.7c-0.1,0.6-0.6,1.1-1.1,1.3c-0.3,0.2-0.6,0.1-0.8-0.2c0,0,0,0,0,0
			c-0.5-1-1.1-1.5-1.8-1.6c-0.8,0-1.5,0.4-1.8,1.1c-0.9,1.3-1.5,2.9-1.7,4.5c-0.2,1.8,0.3,2.6,1.3,2.8c1,0.1,2.9-0.8,3.6-1.3
			L260.3,308.6z"/>
		<path class="st3" d="M270.7,302.5l-2.5-0.2l-2.5,6.3c-0.4,1-0.3,1.4-0.1,1.4c0.9-0.2,1.7-0.5,2.4-1.1l0.4,0.8
			c-1.1,1.1-3.5,2.3-5,2.1c-0.9-0.1-1.3-1-0.3-3.6l2.5-6.3l-1.9-0.3l-0.1-0.3l0.8-0.8l1.5,0.2l0.9-2.2l2.8-1.3l0.3,0.3l-1.4,3.6
			l2.9,0.4L270.7,302.5z"/>
		<path class="st3" d="M275.9,311.1c-1.6,1.3-3.8,2-4.7,1.9c-0.6-0.1-1.1-0.6-0.2-2.6l2.4-5.7c0.2-0.5,0.3-0.8,0.1-0.8
			c-0.6,0.1-1.3,0.4-1.8,0.7l-0.3-0.8c1.9-1.3,3.9-1.9,4.8-1.8s0.7,1.1,0.1,2.3l-2.6,5.9c-0.3,0.6-0.3,0.9-0.1,0.9
			c0.7-0.1,1.3-0.4,1.9-0.8L275.9,311.1z M278.4,298.8c-0.2,1-1.1,1.6-2,1.4c-0.7-0.1-1.2-0.7-1.2-1.4c0-0.1,0-0.1,0-0.2
			c0.2-1,1.1-1.6,2-1.5c0,0,0,0,0,0c0.7,0.1,1.2,0.7,1.2,1.4C278.4,298.7,278.4,298.7,278.4,298.8L278.4,298.8z"/>
		<path class="st3" d="M277.8,310c0.4-2.8,2.4-5.1,5-5.9c1.1-0.4,2.2-0.5,3.4-0.3c2.4,0.4,3.4,2.2,2.9,4.6c-0.4,2.3-1.8,4.4-3.9,5.5
			c-1.4,0.8-3,1-4.5,0.8C277.9,314.1,277.4,311.9,277.8,310z M282.7,313.7c1.2-0.3,3-2.6,3.6-6c0.3-1.9-0.2-2.8-1.3-3
			c-0.3-0.1-0.5-0.1-0.8,0c-0.9,0.2-2.9,2-3.6,5.8c-0.3,1.8,0.3,2.9,1.3,3.1C282.2,313.7,282.4,313.7,282.7,313.7L282.7,313.7z"/>
		<path class="st3" d="M301.9,316.2c-2.1,1.4-3.8,1.8-4.7,1.6s-1-0.8-0.1-2.7c0.8-1.7,1.6-3.3,2.4-5c0.6-1.2,0.5-1.5,0.2-1.6
			c-1-0.2-4.1,1.9-5.6,3.5c-0.6,1.2-1.4,2.8-2,4.3c-0.8-0.1-1.7-0.1-2.5,0l-0.2-0.2c1.1-2.3,2.5-5,3.7-7.7c0.4-0.7,0.3-0.9,0.2-1
			c-0.7,0.1-1.3,0.3-1.9,0.7l-0.2-0.8c2-1.3,3.7-1.8,4.6-1.6c0.7,0.1,0.8,1-0.2,3L295,310h0c1.4-1.2,3.1-2.2,4.9-2.9
			c0.7-0.3,1.4-0.3,2.1-0.2c0.8,0.2,1.5,0.8,0,3.8c-0.7,1.4-1.4,3-2.1,4.5c-0.3,0.6-0.3,0.9-0.1,0.9c0.7-0.1,1.3-0.3,1.8-0.7
			L301.9,316.2z"/>
		<path class="st0" d="M18.5,373.4c-0.3,0-0.5,0.1-0.6,0.5l-3.5,8.2c-0.5,1.1-0.9,2.4-1,3.6c0,1.1,0.6,1.9,2.6,1.9h1
			c0.8,0,1,0.1,1,0.5s-0.4,0.6-1.1,0.6c-2.1,0-4.9-0.2-6.9-0.2c-0.7,0-4.3,0.2-7.7,0.2c-0.9,0-1.2-0.1-1.2-0.6s0.3-0.5,0.8-0.5
			s1.5-0.1,2-0.1c3-0.4,4.2-2.4,5.6-5.4l16.4-37c0.8-1.7,1.2-2.4,1.8-2.4s1,0.5,1.6,1.9c1.6,3.3,12,27.2,16.2,36.2
			c2.5,5.4,4.4,6.2,5.8,6.5c0.9,0.2,1.8,0.2,2.8,0.2c0.5,0,0.8,0.1,0.8,0.5s-0.6,0.6-3,0.6s-7.1,0-12.4-0.1c-1.2-0.1-2-0.1-2-0.5
			s0.3-0.5,0.9-0.5c0.5-0.2,0.8-0.7,0.6-1.3c0,0,0-0.1,0-0.1l-5.2-12.3c-0.1-0.3-0.4-0.4-0.7-0.4L18.5,373.4z M31.9,370.4
			c0.3,0,0.4-0.2,0.3-0.4l-5.9-14.7c-0.1-0.2-0.1-0.5-0.3-0.5s-0.3,0.3-0.4,0.5l-6,14.6c-0.1,0.2,0,0.4,0.3,0.4L31.9,370.4z"/>
		<path class="st0" d="M60,387.9c-1-0.4-1.2-0.7-1.2-2c0-3.3,0.3-6.9,0.3-7.8s0.3-1.5,0.8-1.5s0.7,0.5,0.7,1c0.1,1,0.3,2.1,0.6,3
			c1.4,4.4,5.3,6,9.4,6c5.9,0,8.8-3.6,8.8-6.8c0-2.9-1-5.7-6.4-9.5l-3-2.1c-7.2-5.1-9.7-9.3-9.7-14.1c0-6.6,6-11.3,15.1-11.3
			c2.9,0,5.9,0.3,8.7,1c0.6,0.1,0.9,0.3,0.9,0.7c0,0.8-0.3,2.5-0.3,7.2c0,1.3-0.2,1.8-0.7,1.8s-0.7-0.4-0.7-1.1
			c-0.1-1.5-0.7-2.8-1.7-4c-1-1.1-2.9-2.9-7.1-2.9c-4.8,0-7.8,2.6-7.8,6.1c0,2.7,1.5,4.8,6.9,8.6l1.8,1.3
			c7.9,5.4,10.7,9.5,10.7,15.2c0,4.3-2.3,8.3-6.1,10.4c-3.2,1.7-6.8,2.6-10.4,2.4C66.3,389.6,63.1,389,60,387.9z"/>
		<path class="st0" d="M129.4,362.5c0.2,0,0.4-0.1,0.4-0.3c0,0,0,0,0-0.1v-1.3c0-9.1,0-10.7-0.1-12.7s-0.6-3-2.8-3.4
			c-0.8-0.1-1.7-0.2-2.6-0.2c-0.7,0-1.1-0.1-1.1-0.5s0.5-0.5,1.4-0.5c3.5,0,7.6,0.2,9.4,0.2c1.6,0,5.7-0.2,8.2-0.2
			c0.9,0,1.4,0.1,1.4,0.5s-0.4,0.5-1.2,0.5c-0.6,0-1.3,0.1-1.9,0.2c-1.8,0.3-2.3,1.3-2.4,3.4c-0.1,1.9-0.1,3.6-0.1,12.7v10.5
			c0,5.5,0,10.2,0.3,12.8c0.2,1.7,0.6,3,2.6,3.2c1.1,0.1,2.2,0.2,3.3,0.2c0.7,0,1.1,0.2,1.1,0.5s-0.5,0.6-1.3,0.6
			c-4.3,0-8.4-0.2-10.2-0.2c-1.5,0-5.6,0.2-8.2,0.2c-0.9,0-1.4-0.2-1.4-0.6s0.3-0.5,1-0.5c0.8,0,1.6-0.1,2.4-0.2
			c1.3-0.2,1.6-1.5,1.9-3.3c0.3-2.5,0.3-7.2,0.3-12.7v-5.3c0-0.2-0.2-0.4-0.4-0.4c0,0,0,0,0,0h-25c-0.2,0-0.4,0.1-0.4,0.4v5.3
			c0,5.5,0,10.2,0.3,12.8c0.2,1.7,0.6,3,2.6,3.2c1.1,0.1,2.2,0.2,3.3,0.2c0.7,0,1.1,0.2,1.1,0.5s-0.5,0.6-1.3,0.6
			c-4.3,0-8.4-0.2-10.2-0.2c-1.5,0-5.6,0.2-8.2,0.2c-0.8,0-1.3-0.2-1.3-0.6s0.3-0.5,1-0.5c0.8,0,1.6-0.1,2.4-0.2
			c1.3-0.2,1.6-1.5,1.9-3.3c0.3-2.5,0.3-7.2,0.3-12.7v-10.5c0-9.1,0-10.7-0.1-12.7s-0.7-3-2.8-3.4c-0.8-0.1-1.7-0.2-2.6-0.2
			c-0.7,0-1.1-0.1-1.1-0.5s0.5-0.5,1.4-0.5c3.5,0,7.7,0.2,9.4,0.2c1.6,0,5.7-0.2,8.2-0.2c0.9,0,1.4,0.1,1.4,0.5s-0.4,0.5-1.2,0.5
			c-0.6,0-1.3,0.1-1.9,0.2c-1.8,0.3-2.3,1.3-2.4,3.4c-0.1,1.9-0.1,3.6-0.1,12.7v1.3c0,0.2,0.1,0.4,0.3,0.4c0,0,0,0,0.1,0H129.4z"/>
		<path class="st0" d="M152.5,349.3c-0.8-2.2-1.5-3.6-2.4-4.2c-0.8-0.4-1.7-0.6-2.6-0.5c-0.7,0-1-0.1-1-0.5s0.5-0.5,1.4-0.5
			c3.4,0,7,0.2,7.6,0.2s3.5-0.2,7.3-0.2c0.9,0,1.4,0.2,1.4,0.5s-0.5,0.5-1.2,0.5c-0.6,0-1.1,0-1.6,0.2c-0.6,0.2-0.7,0.7-0.7,1.3
			c0.3,1.9,0.8,3.7,1.4,5.5c1.1,3.9,7.2,22,8.4,25.4h0.2l12.7-31.2c0.6-1.7,1.1-2.1,1.6-2.1c0.7,0,1,0.9,1.9,2.8l13.6,30.1h0.2
			c1.2-4,6.4-19.8,8.7-26.8c0.4-1.1,0.6-2.3,0.7-3.5c0-1-0.6-1.8-3.1-1.8c-0.6,0-1.1-0.2-1.1-0.5s0.5-0.5,1.5-0.5
			c3.5,0,6.2,0.2,6.8,0.2s3.3-0.2,5.4-0.2c0.7,0,1.2,0.1,1.2,0.5s-0.3,0.6-0.9,0.6c-0.8,0-1.5,0.1-2.3,0.3c-1.6,0.5-2.3,2.9-3.7,6.3
			c-3,7.5-9.9,26.5-13.1,35.5c-0.7,2.1-1,2.8-1.9,2.8c-0.6,0-1-0.7-2-2.9l-13.6-30H183c-1.3,3-9.9,24.2-12.8,29.7
			c-1.2,2.5-1.6,3.2-2.4,3.2s-0.9-0.6-1.5-2.2L152.5,349.3z"/>
		<path class="st0" d="M217.8,366.1c0-10.2,7.4-23.4,27-23.4c16.3,0,26.4,8.7,26.4,22.3s-10.5,24.5-27.1,24.5
			C225.4,389.5,217.8,376.6,217.8,366.1z M262,367.2c0-13.4-8.4-21.7-19.2-21.7c-7.5,0-16.1,3.8-16.1,18.7
			c0,12.4,7.5,22.3,20.1,22.3C251.4,386.5,262,384.5,262,367.2z"/>
		<path class="st0" d="M278.4,366.1c0-10.2,7.4-23.4,27-23.4c16.3,0,26.4,8.7,26.4,22.3s-10.5,24.5-27.1,24.5
			C286,389.5,278.4,376.6,278.4,366.1z M322.7,367.2c0-13.4-8.4-21.7-19.2-21.7c-7.5,0-16.1,3.8-16.1,18.7
			c0,12.4,7.5,22.3,20.1,22.3C312.1,386.5,322.7,384.5,322.7,367.2z"/>
		<path class="st0" d="M339.5,360.8c0-9.1,0-10.7-0.1-12.7s-0.6-3-2.8-3.4c-0.8-0.1-1.7-0.2-2.5-0.2c-0.7,0-1.1-0.1-1.1-0.5
			s0.5-0.5,1.4-0.5c3.5,0,7.6,0.2,9.4,0.2c2,0,6.1-0.2,10.1-0.2c8.2,0,19.1,0,26.2,6.8c4.1,3.9,6.5,9.4,6.4,15.2
			c0,6.3-2.5,12.3-7.1,16.7c-3,2.8-9.8,7-21.9,7c-2.4,0-5-0.2-7.5-0.4s-4.8-0.4-6.4-0.4c-0.7,0-2.2,0-3.7,0.1s-3.2,0.1-4.5,0.1
			c-0.9,0-1.3-0.2-1.3-0.6s0.3-0.5,1-0.5c0.8,0,1.6-0.1,2.4-0.2c1.3-0.2,1.6-1.5,1.9-3.3c0.3-2.5,0.3-7.2,0.3-12.7L339.5,360.8z
			 M347.7,367.4c0,6.3,0.1,10.9,0.1,12.1c0.1,1.5,0.2,3.9,0.7,4.5c0.9,1.1,3.4,2.4,8.6,2.4c6.7,0,11.1-1.2,15-4.3
			c4.2-3.3,5.5-8.7,5.5-14.9c0-7.6-3.5-12.5-6.3-14.9c-6-5.3-13.5-6-18.6-6c-1.4,0-2.9,0.1-4.3,0.4c-0.5,0.1-0.9,0.7-0.8,1.2
			c-0.1,2-0.1,7.2-0.1,11.9V367.4z"/>
		<path class="st3" d="M184.1,49.8c-0.1-0.5-1.4-1.8-1.8-1.6s-0.5,2.3-0.8,2.7s-0.5-1.7-0.8-0.5c-0.1,1.5,0,3,0.4,4.4
			c0.1,1,0,2-0.1,3c0,0-1.5,5.5-1.9,5.6c-0.3,0-0.7-0.1-0.9-0.3c-0.8-0.4-1.6-0.8-2.3-1.3c-0.7-0.5-1.4-1-2-1.7
			c-0.9-0.8-1.8-1.5-2.7-2.1c-0.6-0.5-2.7-1.2-3.5-1.7c-0.4-0.3,0.4-0.7,0.2-0.9c3.7,1.4,4.8-5.4,5-6.1s1-1.8-1.8-3.5
			c-2.1-1.3-5.8-0.8-7.1,1.4c-0.9,1.5,0,4.7-1.1,6c-0.9,1.1-2.7,0.7-3.9,0.6c-0.9-0.1-1.8-0.1-2.8,0c-2.4-0.1-4.7-0.3-7.1-0.7
			c-1.2-0.2-7.2-0.3-7.7-0.2s-1.3,1.1-2.1,2.6c-0.7,1.2-1.2,2.5-1.7,3.9c-0.4,1.2-0.9,3.1-0.9,3.1s-0.3,1.2-0.7,2.4
			c-0.1,0.4-0.5,1-0.7,1.5c-0.3,1-0.3,2-0.1,3c0.1,0.6,1.6,1.3,1.6,1.3l0.7-2.2c0,0,0.2,1.3,0,1.3s0.3,0.3,0.6-0.2
			c0.4-0.9,0.5-1.9,0.5-2.9c-0.1-1,0-2.1,0.2-3.1c0.8-3.8,3.1-4.5,5-6.8c2.4,1.6,8.4,1.3,8.4,2.1c-0.8,3.7-1.9,7.4-3.3,10.9
			c-0.8,1.6-1.8,3.2-3,4.6c-1.2,1.4-2.5,2.7-2.8,4.6c-0.3,1.7-1.2,2.6-2.2,4c-1.2,1.7-2.3,3.5-3.3,5.4c-0.7,1.6-1.6,3.1-2.5,4.6
			c-1.4,1.7-3,3.3-4.7,4.8c-2.1,1.9-3.2,4-5.2,6.6c-0.6,0.7-1.2,1.4-1.9,2.1c-0.5,0.5-0.9,1.3-1.6,1.6s-1.4-0.5-2.1-0.5
			c-0.8,0-1.4,0.5-1.7,1.2c-0.7,1.4-0.6,3.1-1.1,4.5c-0.7,1.8-1.8,3.3-1.3,5.3c0.3,1,0.9,2.6,2,3s0.4-2.2,0.6-2.7
			c0.5-1.3,1.7-2.5,2.4-3.7c1-1.4,2.1-2.7,3.4-3.8c2.7-2.4,5.7-4.3,8.4-6.6c1.1-1,2.3-1.9,3.6-2.7c1.3-0.6,2.4-1.4,3.2-2.5
			c1-1.2,2.1-2.3,3.3-3.2c1.3-1.2,2.5-2.4,3.7-3.8c-0.9,1.4-0.2,3.5-0.2,5c0,2.2-1.2,4.1-1.3,6.2c0,0.5,0.2,3.2,1.1,1.8
			c1-1.7,1.4-3.5,2.7-5s2.6-2.8,3.9-4.1s3.5-1.9,5.3-2.4c3.4-1,7.1-1.1,10.3-2.6c2.5-1.2,5-4.9,3-7.5c-0.9-1.3-2.6-1.9-3.9-2.8
			c-1.5-1-3.1-1.9-4.8-2.7c-1.4-0.7-2.9-1-4.2-1.6c-1.8-0.8,0.8-2.6,1.5-3.2s1.4-1.3,2.1-1.9s3.5-3.4,3.5-3.4s1.3-1.2,1.9-1.9
			c1.1-1.1,2.7-1.9,4-1c1.4,0.9,2.8,1.7,4.4,2.2c2.1,0.7,4.7,1.9,6.3-0.6c0.8-1.5,1.4-3.2,1.7-4.9c0.3-1.8,0.2-5.8,0.6-7.6
			C184.2,53.1,184.3,51.4,184.1,49.8z M157,88.5c-1.2,0.8-2.3,1.9-3.6,2.7c-2.1,1.3-5.1-0.4-6.9,1.2c1.6-1.8,3.4-4.4,5.6-5.5
			c1.4-0.7,2.9-0.4,4.3-0.3c1.5,0.1,2.9,0,4.4-0.3C159.6,87,158.3,87.8,157,88.5z"/>
	</g>
</g>
</svg>
