<svg xmlns="http://www.w3.org/2000/svg" viewBox="0 0 387.78 431.91"><defs><style>.cls-1,.cls-3{fill:#fff;}.cls-2,.cls-4{fill:#aa2d29;}.cls-2,.cls-3{fill-rule:evenodd;}.cls-5{fill:#f5a800;}.cls-6{fill:#011e41;}.cls-7{fill:#0033a1;}</style></defs><g id="Layer_2" data-name="Layer 2"><g id="Layer_1-2" data-name="Layer 1"><path class="cls-1" d="M97.74,282.06c-4.6-12.42-13.84-23.8-16.15-35.4-2.84-15.6-.71-28.47,9.94-39.27-2.27,2.48-9.94,8.36-13.59,4.06-1.64-2-1-5.61-.24-7.64,3.55-12.19,2.57-34.54,2.08-34.28s-.7,15.32-1.71,21c-.69,2.83-2.4,10.94-5.13,11.43s-8.12-9-11.3-10.5c3.41,9.14,9.11,15.8,9.42,25.85-.15,8.06-.35,16.65-.51,24.31-.34,14.49,13.11,31.28,6.88,45.16C81.65,283.82,97.74,282.06,97.74,282.06Z"/><path class="cls-1" d="M91.74,211c4.25,10.73,9.86,2.1,16.29,7.12-2-1.55-2.54-5.95-4.92-7.09a8.28,8.28,0,0,0-6.82-1.69Z"/><path class="cls-1" d="M101.6,201.83c2.21-4.6-.25-6.58,2.7-12.72-4.1,7-10,7.57-8.88,17.19C95.42,206.3,99.39,206.43,101.6,201.83Z"/><path class="cls-1" d="M94.67,199.54c2-4.49-6.09-18.12-6.09-18.12s-3.28,8.16-3.16,12.18C86,198,90,201.5,90.5,205.91A19.59,19.59,0,0,0,94.67,199.54Z"/><path class="cls-1" d="M82.15,175.32c11,4.6,10.73-12.37,14-18.21-5.53,3.26-8.85,3.74-11.36,9.75-1.07,3.06-.9,6-3,8.38Z"/><path class="cls-1" d="M86.33,159.16c1.59-5.63-5.81-13.44-6.81-20.65-.23,5.23-4.8,9.81-4.65,14.63-.22,5.65,6.16,9.06,5.95,15.1A20.59,20.59,0,0,0,86.33,159.16Z"/><path class="cls-1" d="M77.37,171.08C82.9,159.24,65.24,158.58,63,150.6c.63,8,.27,15.73,5.37,19.3S77.37,171.08,77.37,171.08Z"/><path class="cls-1" d="M69.81,189.42c2.27-5.8-2.6-8.06-2.84-15.7-4.08,7.38-4.37,14-1.77,18.72S67.54,195.23,69.81,189.42Z"/><path class="cls-1" d="M60.71,190.12c-3.45-10.35-17.57-10.7-19.07-21.11.07,14.88,6,17.71,12,20.44S60.71,190.12,60.71,190.12Z"/><path class="cls-1" d="M48.16,193.43c5.67-1.93,11.27,4,11.27,4s-7,8.85-13,6.11c-4.94-2.11-4.24-8-5.32-11.9C41.08,191.61,42.48,195.36,48.16,193.43Z"/><path class="cls-1" d="M292.14,282.06c4.59-12.42,13.83-23.8,16.15-35.4,2.83-15.6.7-28.47-10-39.27,2.28,2.48,9.94,8.36,13.6,4.06,1.63-2,.95-5.61.23-7.64-3.54-12.19-2.56-34.54-2.08-34.28s.71,15.32,1.71,21c.69,2.83,2.41,10.94,5.14,11.43s8.11-9,11.29-10.5c-3.41,9.14-9.11,15.8-9.42,25.85.15,8.06.36,16.65.51,24.31.34,14.49-13.11,31.28-6.87,45.16C308.23,283.82,292.14,282.06,292.14,282.06Z"/><path class="cls-1" d="M298.13,211c-4.24,10.73-9.86,2.1-16.29,7.12,2-1.55,2.54-5.95,4.92-7.09a8.29,8.29,0,0,1,6.82-1.69Z"/><path class="cls-1" d="M288.27,201.83c-2.21-4.6.25-6.58-2.7-12.72,4.1,7,10,7.57,8.88,17.19C294.45,206.3,290.48,206.43,288.27,201.83Z"/><path class="cls-1" d="M295.2,199.54c-2-4.49,6.1-18.12,6.1-18.12s3.27,8.16,3.15,12.18c-.53,4.41-4.55,7.9-5.08,12.31A19.59,19.59,0,0,1,295.2,199.54Z"/><path class="cls-1" d="M307.72,175.32c-11,4.6-10.73-12.37-14-18.21,5.53,3.26,8.85,3.74,11.36,9.75,1.07,3.06.91,6,3,8.38Z"/><path class="cls-1" d="M303.55,159.16c-1.6-5.63,5.8-13.44,6.8-20.65.23,5.23,4.8,9.81,4.65,14.63.22,5.65-6.16,9.06-5.95,15.1A20.62,20.62,0,0,1,303.55,159.16Z"/><path class="cls-1" d="M312.5,171.08c-5.53-11.84,12.13-12.5,14.33-20.48-.63,8-.27,15.73-5.37,19.3S312.5,171.08,312.5,171.08Z"/><path class="cls-1" d="M320.06,189.42c-2.27-5.8,2.6-8.06,2.84-15.7,4.08,7.38,4.37,14,1.78,18.72S322.33,195.23,320.06,189.42Z"/><path class="cls-1" d="M329.16,190.12c3.45-10.35,17.57-10.7,19.07-21.11-.07,14.88-6,17.71-12,20.44S329.16,190.12,329.16,190.12Z"/><path class="cls-1" d="M341.72,193.43c-5.68-1.93-11.28,4-11.28,4s7,8.85,13,6.11c4.94-2.11,4.24-8,5.32-11.9C348.79,191.61,347.39,195.36,341.72,193.43Z"/><path class="cls-2" d="M.15,308s96.67-40.08,190.08-40.79c95.42-.72,197.55,39.85,197.55,39.85s-85.43-27.68-194.25-28.15S.15,308,.15,308Z"/><path class="cls-3" d="M301.7,45.59,189.15,0l-1.07,21L87.27,47.38s0,9.6,1.5,25.7l0,1.12c2.8,82,25.18,139.09,89.05,189.76l15.61,12.39L209.09,264c63.94-53.49,83.52-110.47,89.07-156.63A465,465,0,0,0,301.7,45.59Z"/><polygon class="cls-4" points="291.27 52.07 276.67 126.71 199.7 119.99 195.96 15.77 291.27 52.07"/><polygon class="cls-5" points="189.45 33.81 189.43 126.82 113.78 127.96 95.6 57.61 189.45 33.81"/><path class="cls-1" d="M220.08,51.94l.16,31.29s7.88,1.69,12.06,5.63a32.59,32.59,0,0,1,6.36,8.37l.4-32.1A23.79,23.79,0,0,0,229.49,55C222.81,51.38,220.08,51.94,220.08,51.94Z"/><path class="cls-1" d="M213,59l4.83-.16L218.07,86s7.64.65,12.71,5.31a25.66,25.66,0,0,1,6.75,10.7s-1.26-3.35-12.22-6.44c-8.29-2.33-12.15-1.36-12.15-1.36Z"/><path class="cls-1" d="M207.37,67.3h3.22l.08,29a43,43,0,0,1,14.4,1.85c8.36,2.41,10.45,4.74,10.45,4.74l-28,.17Z"/><path class="cls-1" d="M261.86,51.94l-.16,31.29s-7.88,1.69-12.06,5.63a32.87,32.87,0,0,0-6.36,8.37l-.4-32.1A23.87,23.87,0,0,1,252.45,55C259.13,51.38,261.86,51.94,261.86,51.94Z"/><path class="cls-1" d="M268.94,59l-4.83-.16L263.87,86s-7.64.65-12.7,5.31a25.62,25.62,0,0,0-6.76,10.7s1.26-3.35,12.23-6.44c8.28-2.33,12.14-1.36,12.14-1.36Z"/><path class="cls-1" d="M274.57,67.3h-3.22l-.08,29a42.88,42.88,0,0,0-14.39,1.85c-8.37,2.41-10.46,4.74-10.46,4.74l28,.17Z"/><polygon class="cls-6" points="186.15 132.42 190.83 235.31 123.22 191.86 113.43 142.84 186.15 132.42"/><path class="cls-1" d="M139.57,150.23l14.94-8.07s5.1,17.08,5.93,20,2.1,7.05-1.06,9.6-9.37,1.22-10.08-2a5.23,5.23,0,0,1,3.79-6.4,14,14,0,0,1,5.81,0l-4.15-14.23L143,155.8s5.46,18.61,5.46,19,.11,6.28-5.69,6.28-7-4-6.05-6.52a6.27,6.27,0,0,1,5.57-3.68,10.35,10.35,0,0,1,3.2.24Z"/><path class="cls-1" d="M150.18,211.16s13.33-22.2,15.36-24.75,2.79-2.54,2.79-2.54a16.63,16.63,0,0,0,2.76.76c.64,0,2.56-.1,2.56-.1s-6.59,17.55-9.49,22.65-3.33,11.71-3.33,11.71Z"/><path class="cls-1" d="M179.22,159.31s1.68,3.52-2.6,6.17-14.53,8.76-11.36,12.83,8.93,6,12.88,3.05,5.17-10,4-15S179.22,159.31,179.22,159.31Z"/><polygon class="cls-7" points="284.25 136.07 253.97 205.17 197.07 222.56 199.73 132.06 284.25 136.07"/><path class="cls-1" d="M236.89,210.46a33.88,33.88,0,0,1-5.47-.88,36.77,36.77,0,0,1,4.57-7.23,46.92,46.92,0,0,0,8.25,5.83l4.06-1.25a62.63,62.63,0,0,1-10.38-7,42.29,42.29,0,0,1,8.64-7.32l6.91,12.73.5-.16,1.42-3.23L249.46,191a41.59,41.59,0,0,1,10.84-3.26c.1.79.17,1.59.23,2.39l2.58-5.89a52,52,0,0,0-4.6-16.14l11.67-6.34c.51,1.05,1,2.11,1.37,3.17l1.93-4.42c-.33-.63-.67-1.25-1-1.87a37.32,37.32,0,1,0-42.58,54Zm-1.19-12.33a51.17,51.17,0,0,1-10.38-12l13.7-7.43,5.92,10.9A38.35,38.35,0,0,0,235.7,198.13Zm1.75-22.31-13.7,7.44a49.22,49.22,0,0,1-4.4-15.23,38,38,0,0,0,12.18-3.11Zm-3-12.47a37.84,37.84,0,0,0,9.24-8.52,49.17,49.17,0,0,1,10.38,12l-13.7,7.44ZM260,184.93A38.43,38.43,0,0,0,247.84,188l-5.93-10.89,13.7-7.45A51.14,51.14,0,0,1,260,184.93Zm8.6-26-11.68,6.34a58,58,0,0,0-11.18-12.79,47.92,47.92,0,0,0,5.31-8.14A33.45,33.45,0,0,1,268.61,158.9Zm-20.67-15.51a38.46,38.46,0,0,1-4.53,7.08,52.14,52.14,0,0,0-11-7.14A31.88,31.88,0,0,1,247.94,143.39Zm-19.86,1.16a66.61,66.61,0,0,1,13.4,8.34,40.63,40.63,0,0,1-8.68,7.47l-7.86-14.47A19.64,19.64,0,0,1,228.08,144.55Zm-8.87,4.82a18.52,18.52,0,0,1,2.83-1.91l7.86,14.47a40.78,40.78,0,0,1-11,3.22A66.21,66.21,0,0,1,219.21,149.37Zm-3.39,3a52.35,52.35,0,0,0,0,13.12,38.86,38.86,0,0,1-8.4-.06A31.83,31.83,0,0,1,215.82,152.34Zm-9.32,16.18a47.13,47.13,0,0,0,9.72,0,58.13,58.13,0,0,0,4.63,16.34l-11.67,6.34A33.37,33.37,0,0,1,206.5,168.52Zm4.26,25.55,11.67-6.34a51.92,51.92,0,0,0,11.19,12.78,48.12,48.12,0,0,0-5.33,8.14A33.31,33.31,0,0,1,210.76,194.07Z"/><path class="cls-1" d="M0,401.35H2.82v12.07h16.9V401.35h2.82v29.76H19.72V415.75H2.82v15.36H0Z"/><path class="cls-1" d="M39.62,401.35h2.83v29.76H39.62Z"/><path class="cls-1" d="M74.12,403.14c-7.78,0-13,5.58-13,13.45a12.61,12.61,0,0,0,13,12.82c6.9,0,11.77-4.37,11.85-10.66H75.25v-2.33H89.06v.42c0,9.36-5.78,15.07-15.2,15.07S58,425.58,58,416.29c0-9,6.48-15.6,15.69-15.6,6.16,0,10.81,2.12,13.29,6.45l-2,1.7A12.52,12.52,0,0,0,74.12,403.14Z"/><path class="cls-1" d="M104.36,401.35h2.82v12.07h16.9V401.35h2.82v29.76h-2.82V415.75h-16.9v15.36h-2.82Z"/><path class="cls-1" d="M165.88,424.87a6.28,6.28,0,0,0,6.34,4.62c3.91,0,6.25-2.29,6.25-6.28,0-3.67-2.26-5-5.9-6.87-4.91-2.46-7.78-4.37-7.78-8.54s3.26-7.16,8-7.16a7.39,7.39,0,0,1,6.86,3.79l-2.17,1.25a5.1,5.1,0,0,0-4.87-2.62c-3.08,0-5,1.87-5,4.79,0,3.62,2.82,4.45,6.86,6.57,4.56,2.38,6.65,4.29,6.65,8.79,0,5.32-3.48,8.7-9.08,8.7a8.81,8.81,0,0,1-8.65-5.79Z"/><path class="cls-1" d="M211.92,403.06c-8.12,0-13.55,5.49-13.55,13.19,0,8,5.69,13.16,13.16,13.16a16.45,16.45,0,0,0,10-3.46l0,3.17a19.59,19.59,0,0,1-9.87,2.79c-9.34,0-16.33-6.29-16.33-15.66,0-9.15,7.12-15.56,16.33-15.56a16.43,16.43,0,0,1,10.12,3.12l-.08,3A14.8,14.8,0,0,0,211.92,403.06Z"/><path class="cls-1" d="M237.21,401.35H240v12.07h16.9V401.35h2.82v29.76h-2.82V415.75H240v15.36h-2.83Z"/><path class="cls-1" d="M303.73,427.33A17.14,17.14,0,0,1,292,431.91a16.87,16.87,0,0,1-11.73-4.58,15,15,0,0,1,0-22.15,17.63,17.63,0,0,1,23.51,0,15,15,0,0,1,0,22.15Zm1.86-11A13.62,13.62,0,1,0,292,429.49,13.39,13.39,0,0,0,305.59,416.29Z"/><path class="cls-1" d="M351.08,427.33a17.11,17.11,0,0,1-11.77,4.58,16.85,16.85,0,0,1-11.73-4.58,15,15,0,0,1,0-22.15,17.62,17.62,0,0,1,23.5,0,15,15,0,0,1,0,22.15Zm1.87-11a13.63,13.63,0,1,0-13.64,13.2A13.39,13.39,0,0,0,353,416.29Z"/><path class="cls-1" d="M371.55,401.35h2.82v27.23H385v2.53H371.55Z"/><path class="cls-1" d="M67.63,309.43l-21.92,6.92,15,6.43L60,338.31s15.61-8.73,20.69-9.2"/><path class="cls-1" d="M312.87,309l22.39,5.53-14.53,7.36,1.93,15.44s-16.23-7.73-21.33-7.88"/><path class="cls-1" d="M60.53,302.67,72.6,326.75s32.1-13.1,118.8-13.05S308,327.65,308,327.65l7.69-25.9s-51.94-15.39-124.72-15.23C113.55,286.7,60.53,302.67,60.53,302.67Z"/><path class="cls-6" d="M88.93,301.46c-1.54.5-1.8.78-2.61,3-.94,2.48-3.13,9.08-4.86,14.54l-1.15.25c-1.74-4.41-4.06-10-5.21-12.59-.69-1.67-1-1.78-2.57-1.61v-.92L79,302.7l0,.92-.56.21c-1,.34-1,.54-.75,1.35.5,1.53,2.37,6,3.93,9.75h0c1.17-3.48,2.75-8.42,3.33-10.74.35-1.45.15-1.72-1.06-1.54l-.63.06,0-.93,5.66-1.23Z"/><path class="cls-6" d="M95.31,313.58c-1.12,1.76-2.86,3.21-3.74,3.38-.64.13-1.26-.22-1.11-2.41l.33-6.19c0-.59,0-.83-.18-.82a5.06,5.06,0,0,0-1.46,1.31l-.54-.65c1.38-1.86,3-3.18,3.88-3.34s1,.76.89,2.17L93,313.48c-.08.7,0,.93.23.89a5,5,0,0,0,1.5-1.39ZM93.37,301.1a1.77,1.77,0,0,1-1.43,2,1.26,1.26,0,0,1-1.59-1.05A1.77,1.77,0,0,1,91.76,300,1.29,1.29,0,0,1,93.37,301.1Z"/><path class="cls-6" d="M96.31,314.06a1.55,1.55,0,0,1,.59-1.4c.37-.32.63-.34.9-.11a3.8,3.8,0,0,0,3,1.16,1.27,1.27,0,0,0,1.16-1.4c-.1-.55-.49-1-1.91-1.66s-2.8-1.28-3-2.68a3.36,3.36,0,0,1,1-2.89,5.79,5.79,0,0,1,2.86-1.79c1.29-.23,2.42.38,2.55,1.14a1.68,1.68,0,0,1-.55,1.36c-.31.24-.54.26-.75.08a2.87,2.87,0,0,0-2.39-.89,1.07,1.07,0,0,0-1,1.27c.13.73,1,1.24,2.1,1.71,1.69.72,2.69,1.41,2.91,2.6.39,2.11-2,4.45-4.28,4.87C98.2,315.67,96.53,315.09,96.31,314.06Z"/><path class="cls-6" d="M111.45,310.71c-1.16,1.74-2.94,3.14-3.82,3.29-.64.1-1.25-.26-1-2.44l.49-6.19c0-.58,0-.82-.16-.82a5.18,5.18,0,0,0-1.49,1.28l-.53-.67c1.43-1.82,3.12-3.1,4-3.24s1,.79.84,2.19l-.57,6.44c-.09.7,0,.94.21.91a5.06,5.06,0,0,0,1.53-1.36Zm-1.6-12.52a1.76,1.76,0,0,1-1.48,2,1.27,1.27,0,0,1-1.57-1.09,1.79,1.79,0,0,1,1.48-2.06A1.3,1.3,0,0,1,109.85,298.19Z"/><path class="cls-6" d="M112.88,309a7.48,7.48,0,0,1,2.86-7.24,7.25,7.25,0,0,1,3.07-1.39c2.37-.36,3.89,1,4.26,3.38a7.89,7.89,0,0,1-1.87,6.47,7.19,7.19,0,0,1-4,2.23C114.35,312.87,113.17,310.94,112.88,309Zm5.82,1.89c1.08-.66,2-3.41,1.48-6.78-.31-1.88-1.14-2.6-2.16-2.45a2.24,2.24,0,0,0-.76.28c-.78.51-2.09,2.78-1.49,6.68.27,1.83,1.17,2.67,2.22,2.51A2.12,2.12,0,0,0,118.7,310.89Z"/><path class="cls-6" d="M137.67,307.05c-1.55,2-3,3-3.85,3.07s-1.23-.42-1-2.55c.24-1.86.43-3.7.63-5.52.19-1.36,0-1.59-.32-1.6-1,.13-3.26,3.18-4.11,5.09-.18,1.31-.38,3.14-.51,4.74a15.64,15.64,0,0,0-2.42.79l-.23-.15c.3-2.5.7-5.52,1-8.49.1-.79,0-1-.15-.95a5.12,5.12,0,0,0-1.53,1.26l-.5-.7c1.43-1.83,2.91-2.91,3.8-3,.71-.09,1.08.68.82,2.92l-.18,1.56h.06a16.1,16.1,0,0,1,3.63-4.35,4.09,4.09,0,0,1,1.93-.92c.79-.11,1.68.27,1.26,3.59-.17,1.55-.35,3.24-.54,4.91-.08.69,0,.93.17.91a4.28,4.28,0,0,0,1.51-1.26Z"/><path class="cls-6" d="M152.73,292.39c-2,.33-2,.54-2.24,2.37L149.42,305c-.22,1.93-.07,2.07,2.05,2l-.12.89-7.2.7.12-.89c1.88-.36,2.06-.57,2.28-2.47L147.63,295c.2-1.85,0-2-2.13-1.94l.16-.93,7.19-.69Z"/><path class="cls-6" d="M165.41,304.55c-1.66,1.92-3.18,2.8-4,2.86s-1.21-.48-.85-2.6c.34-1.84.63-3.66.93-5.48.26-1.34.08-1.58-.23-1.61-1,.08-3.44,3-4.39,4.86-.25,1.31-.55,3.12-.77,4.71a16.4,16.4,0,0,0-2.46.66l-.22-.16c.44-2.48,1-5.47,1.44-8.42.14-.79.07-1-.1-1a5.07,5.07,0,0,0-1.6,1.18l-.46-.73c1.53-1.75,3.06-2.75,4-2.82.7-.05,1,.73.65,3l-.27,1.54h.06a16,16,0,0,1,3.87-4.15,4.06,4.06,0,0,1,2-.82c.79-.06,1.66.37,1.06,3.65-.26,1.55-.52,3.22-.81,4.87-.11.69-.07.94.13.92a4.26,4.26,0,0,0,1.57-1.17Z"/><path class="cls-6" d="M166.35,305.14a1.55,1.55,0,0,1,.77-1.31c.4-.27.67-.25.9,0a3.86,3.86,0,0,0,2.83,1.55,1.28,1.28,0,0,0,1.33-1.23c0-.57-.36-1-1.68-1.91s-2.61-1.63-2.68-3.05a3.37,3.37,0,0,1,1.42-2.73,5.73,5.73,0,0,1,3.07-1.39c1.3-.07,2.34.69,2.38,1.46a1.67,1.67,0,0,1-.73,1.28c-.34.2-.56.18-.75,0a2.87,2.87,0,0,0-2.25-1.2,1.08,1.08,0,0,0-1.12,1.14c0,.74.81,1.35,1.87,2,1.58.93,2.49,1.75,2.55,3,.1,2.14-2.57,4.15-4.88,4.26C168,307,166.43,306.19,166.35,305.14Z"/><path class="cls-6" d="M181.16,295.06a10.21,10.21,0,0,1,2.36-.35c2.75-.07,3.9,1.23,3.95,3.56a7.75,7.75,0,0,1-2.12,5.22,10.52,10.52,0,0,1-4.93,3,3.93,3.93,0,0,1-1.45-.21l-.57,3.12c-.24,1.22-.07,1.43,1.2,1.56l.66,0-.13.87-6.66.46.16-.88c1.52-.31,1.84-.55,2.14-2,.82-4.19,1.67-8.33,2.47-12.41a12,12,0,0,0-2,.88l-.27-.8a12.29,12.29,0,0,1,2.5-1.32l.3-1.07a9,9,0,0,1,2.49-1.74l.32.15Zm-1.82,9.39a2,2,0,0,0,1.45.77c1.66,0,3.82-3.45,3.78-6.61,0-2.09-1.13-2.58-2.4-2.55a4,4,0,0,0-1.27.22Z"/><path class="cls-6" d="M194.74,303.78c-1.44,1.51-3.43,2.58-4.32,2.58-.66,0-1.2-.47-.62-2.58l1.54-6c.14-.56.14-.8,0-.83a5.26,5.26,0,0,0-1.69,1l-.4-.74c1.72-1.56,3.6-2.53,4.46-2.52s.82.94.46,2.3l-1.65,6.24c-.21.68-.15.93,0,.93a4.89,4.89,0,0,0,1.74-1.08Zm.54-12.61a1.76,1.76,0,0,1-1.8,1.72,1.27,1.27,0,0,1-1.36-1.34,1.79,1.79,0,0,1,1.8-1.78A1.3,1.3,0,0,1,195.28,291.17Z"/><path class="cls-6" d="M200.69,298.78c1.41-2.35,2.84-3.92,3.9-3.9a1.45,1.45,0,0,1,1.2.71,1.23,1.23,0,0,1-.11,1.4,3.05,3.05,0,0,1-.83.85c-.29.18-.49.17-.68,0a1.62,1.62,0,0,0-1-.46c-.25,0-.56.19-1.15.9a10.43,10.43,0,0,0-1.7,2.86c-.38,1.46-.78,3.21-1.15,4.83a14.3,14.3,0,0,0-2.51.39l-.19-.22c.72-2.62,1.41-5.32,2-8,.16-.84.17-1.16,0-1.17a4.79,4.79,0,0,0-1.74,1l-.42-.74c1.52-1.45,3.2-2.44,4.09-2.42s.9,1.08.44,3l-.27,1Z"/><path class="cls-6" d="M214.65,304c-2.44,2.25-4.49,2.79-6.09,2.72-1.41-.06-3-.89-2.91-3.84a8.16,8.16,0,0,1,3.38-6.29,7.5,7.5,0,0,1,4.08-1.37c1.71.08,2.55,1.12,2.5,2.31-.11,2.58-4.44,3.64-7.05,4.16a5.51,5.51,0,0,0-.06.69c-.06,1.35.34,2.53,1.74,2.59a6.39,6.39,0,0,0,3.92-1.74ZM211,296.68c-.65.35-1.87,1.54-2.31,4.1,3.22-.7,4.3-1.77,4.35-3a1.14,1.14,0,0,0-1.06-1.34A1.71,1.71,0,0,0,211,296.68Z"/><path class="cls-6" d="M228.44,305.24a7.11,7.11,0,0,1-4.42,2.38c-.62-.05-1.08-.49-.48-2.54l.45-1.6h-.05a17.52,17.52,0,0,1-3.27,2.79,4.84,4.84,0,0,1-2.73,1c-1.08-.07-1.89-1.24-1.75-3.27a9,9,0,0,1,3.45-6.38,9.39,9.39,0,0,1,4.88-1.65,4.77,4.77,0,0,1,1.48.31l1-3.46c.27-1,.14-1.13-1-1.2l-.68-.08.16-.83a34.45,34.45,0,0,0,4.52-.54c.32,0,.34.18.19.74-1.49,4.69-2.78,9.13-4,13.75-.17.66-.16.91,0,.92a4.35,4.35,0,0,0,1.81-1Zm-4-3.78,1.07-3.58a3.53,3.53,0,0,0-1.95-.8,2.27,2.27,0,0,0-1.48.34c-1.73,1.08-2.82,4.24-2.94,6.2-.08,1.09.2,1.62.62,1.65C221,305.35,223.54,302.85,224.46,301.46Z"/><path class="cls-6" d="M250,309.72l-6.61-.69.34-.84c1.67,0,1.81-.29,1.78-1.36-.05-.88-.08-1.92-.17-3.05l-5.12-.54c-.55.77-1.2,1.76-1.81,2.74s-.64,1.37,1.29,1.78l-.31.85-5.81-.61.35-.84c1.58-.1,1.88-.18,3.41-2.23l8.93-12,1.25-.14.21,3.72c.15,3.34.44,6.59.6,9.76.1,2,.25,2.2,2,2.6Zm-5-13.3H245c-1.35,1.9-2.72,3.73-4,5.61l4.28.45Z"/><path class="cls-6" d="M260.29,308.57a8.26,8.26,0,0,1-5.77,2.06c-1.9-.24-2.84-1.68-2.53-4.05a8.19,8.19,0,0,1,3.57-5.7,7.66,7.66,0,0,1,4.59-1.31c1.21.15,2.13.9,2,1.67a1.6,1.6,0,0,1-1.14,1.25.55.55,0,0,1-.77-.2c-.54-1-1.11-1.49-1.82-1.58a2,2,0,0,0-1.83,1.1,10,10,0,0,0-1.66,4.45c-.23,1.8.3,2.63,1.34,2.76s2.89-.8,3.58-1.28Z"/><path class="cls-6" d="M270.72,302.55l-2.47-.22-2.45,6.33c-.41,1-.34,1.35-.09,1.39a5.45,5.45,0,0,0,2.44-1.08l.35.77c-1.14,1.07-3.49,2.32-4.95,2.1-.86-.12-1.27-1-.32-3.56l2.48-6.32-1.86-.27-.07-.29.84-.82,1.55.22.89-2.17,2.82-1.32.27.27-1.44,3.59,2.89.41Z"/><path class="cls-6" d="M275.93,311.12c-1.65,1.27-3.79,2-4.67,1.89-.65-.11-1.11-.65-.21-2.65l2.44-5.69c.23-.54.27-.78.11-.83a5.07,5.07,0,0,0-1.82.73l-.28-.8c1.93-1.27,3.94-1.94,4.79-1.8s.67,1.06.1,2.34l-2.6,5.92c-.31.63-.28.89-.09.92a5,5,0,0,0,1.89-.8Zm2.49-12.37a1.78,1.78,0,0,1-2.05,1.43,1.27,1.27,0,0,1-1.14-1.54,1.78,1.78,0,0,1,2.06-1.47A1.3,1.3,0,0,1,278.42,298.75Z"/><path class="cls-6" d="M277.78,310a7.51,7.51,0,0,1,5.05-5.94,7.22,7.22,0,0,1,3.35-.32c2.36.42,3.37,2.17,2.94,4.56a7.91,7.91,0,0,1-3.86,5.53,7.23,7.23,0,0,1-4.53.81C277.93,314.08,277.43,311.87,277.78,310Zm4.9,3.66c1.24-.28,3-2.59,3.59-5.95.31-1.87-.24-2.82-1.25-3a2,2,0,0,0-.81,0c-.91.22-2.87,1.95-3.57,5.84-.33,1.82.25,2.9,1.29,3.09A2.1,2.1,0,0,0,282.68,313.61Z"/><path class="cls-6" d="M301.87,316.18c-2.13,1.38-3.83,1.81-4.66,1.63s-1-.8-.09-2.73q1.25-2.52,2.41-5c.63-1.22.52-1.5.23-1.62-.95-.2-4.13,1.93-5.57,3.45-.6,1.18-1.39,2.84-2,4.31a14.79,14.79,0,0,0-2.55-.05l-.17-.22c1.12-2.26,2.49-5,3.72-7.69.36-.73.34-.92.18-.95a5,5,0,0,0-1.87.69l-.24-.84c2-1.25,3.71-1.78,4.59-1.6.7.15.79,1-.19,3l-.68,1.41H295a16.31,16.31,0,0,1,4.87-2.91,4.24,4.24,0,0,1,2.13-.24c.77.17,1.49.82,0,3.81-.68,1.41-1.4,2.95-2.13,4.46-.3.62-.33.88-.14.92a4.33,4.33,0,0,0,1.84-.7Z"/><path class="cls-1" d="M18.52,373.4c-.33,0-.46.12-.59.48l-3.53,8.18a10.56,10.56,0,0,0-1,3.64c0,1.08.59,1.85,2.61,1.85h1c.79,0,1,.12,1,.48s-.4.6-1.12.6c-2.09,0-4.9-.18-6.93-.18-.72,0-4.32.18-7.72.18-.85,0-1.24-.12-1.24-.6s.26-.48.78-.48,1.51-.06,2-.12c3-.36,4.25-2.39,5.56-5.37l16.42-37c.79-1.73,1.18-2.39,1.83-2.39s1,.54,1.64,1.91c1.57,3.29,12,27.17,16.22,36.24,2.49,5.38,4.38,6.22,5.76,6.51a15.58,15.58,0,0,0,2.75.24c.52,0,.85.06.85.48s-.59.6-3,.6-7.13,0-12.37-.12c-1.17-.06-2-.06-2-.48s.26-.48.92-.54a1,1,0,0,0,.59-1.37l-5.24-12.3a.62.62,0,0,0-.65-.42Zm13.34-3c.33,0,.4-.18.33-.36L26.3,355.37c-.06-.24-.13-.54-.32-.54s-.33.3-.4.54l-6,14.63c-.07.24,0,.42.26.42Z"/><path class="cls-1" d="M60,387.91c-1-.42-1.24-.72-1.24-2,0-3.28.26-6.87.33-7.82s.26-1.55.78-1.55.66.53.66,1a11.55,11.55,0,0,0,.59,3.05c1.43,4.41,5.29,6,9.35,6,5.89,0,8.77-3.64,8.77-6.81,0-2.92-1-5.67-6.41-9.55l-3-2.15c-7.2-5.14-9.69-9.32-9.69-14.15,0-6.57,6-11.29,15.12-11.29a34.34,34.34,0,0,1,8.7,1c.59.12.91.29.91.71,0,.78-.26,2.51-.26,7.17,0,1.31-.19,1.79-.72,1.79s-.65-.36-.65-1.07a6.91,6.91,0,0,0-1.7-3.95c-1-1.13-2.88-2.92-7.14-2.92-4.84,0-7.78,2.57-7.78,6.15,0,2.74,1.51,4.83,6.93,8.6l1.84,1.25c7.91,5.43,10.72,9.55,10.72,15.22A11.77,11.77,0,0,1,80,387a20.35,20.35,0,0,1-10.41,2.44A24.7,24.7,0,0,1,60,387.91Z"/><path class="cls-1" d="M129.38,362.47a.37.37,0,0,0,.39-.41V360.8c0-9.07,0-10.74-.13-12.66s-.65-3-2.81-3.4a14.65,14.65,0,0,0-2.55-.18c-.72,0-1.12-.12-1.12-.53s.46-.54,1.38-.54c3.53,0,7.65.18,9.42.18,1.57,0,5.69-.18,8.24-.18.92,0,1.37.12,1.37.54s-.39.53-1.17.53a12.55,12.55,0,0,0-1.9.18c-1.77.3-2.29,1.31-2.42,3.4-.13,1.92-.13,3.59-.13,12.66v10.51c0,5.49,0,10.21.33,12.78.19,1.67.58,3,2.55,3.22a29.81,29.81,0,0,0,3.33.24c.72,0,1.05.18,1.05.48s-.52.6-1.31.6c-4.25,0-8.37-.18-10.2-.18-1.51,0-5.63.18-8.18.18-.92,0-1.37-.18-1.37-.6s.26-.48,1-.48a11.67,11.67,0,0,0,2.36-.24c1.31-.24,1.63-1.55,1.89-3.28.33-2.51.33-7.23.33-12.72v-5.25a.36.36,0,0,0-.39-.36h-25c-.2,0-.39.06-.39.36v5.25c0,5.49,0,10.21.32,12.78.2,1.67.59,3,2.56,3.22a29.81,29.81,0,0,0,3.33.24c.72,0,1.05.18,1.05.48s-.52.6-1.31.6c-4.25,0-8.37-.18-10.21-.18-1.5,0-5.62.18-8.24.18-.85,0-1.31-.18-1.31-.6s.27-.48,1-.48a11.67,11.67,0,0,0,2.36-.24c1.3-.24,1.63-1.55,1.89-3.28.33-2.51.33-7.23.33-12.72V360.8c0-9.07,0-10.74-.13-12.66s-.65-3-2.81-3.4a14.77,14.77,0,0,0-2.56-.18c-.71,0-1.11-.12-1.11-.53s.46-.54,1.38-.54c3.53,0,7.65.18,9.42.18,1.57,0,5.69-.18,8.24-.18.92,0,1.37.12,1.37.54s-.39.53-1.17.53a12.55,12.55,0,0,0-1.9.18c-1.77.3-2.29,1.31-2.42,3.4-.13,1.92-.13,3.59-.13,12.66v1.26a.37.37,0,0,0,.39.41Z"/><path class="cls-1" d="M152.48,349.34c-.78-2.21-1.5-3.64-2.42-4.24a6.23,6.23,0,0,0-2.61-.54c-.66,0-1-.06-1-.53s.52-.54,1.44-.54c3.4,0,7,.18,7.59.18s3.46-.18,7.26-.18c.91,0,1.37.18,1.37.54s-.52.53-1.18.53a3.72,3.72,0,0,0-1.63.24c-.59.24-.72.66-.72,1.32a36,36,0,0,0,1.44,5.49c1.11,3.94,7.19,22,8.37,25.37h.2l12.69-31.16c.65-1.68,1.11-2.15,1.63-2.15.72,0,1,.89,1.9,2.8l13.61,30.1h.2c1.17-4,6.41-19.77,8.69-26.75a11.71,11.71,0,0,0,.66-3.47c0-1-.59-1.79-3.14-1.79-.65,0-1.11-.18-1.11-.53s.52-.54,1.5-.54c3.47,0,6.22.18,6.8.18s3.28-.18,5.43-.18c.72,0,1.18.12,1.18.47s-.33.6-.91.6a7.76,7.76,0,0,0-2.29.3c-1.57.54-2.29,2.93-3.67,6.33-3,7.52-9.87,26.51-13.08,35.47-.72,2.09-1,2.8-1.9,2.8-.65,0-1-.71-2-2.92l-13.6-30H183c-1.25,3.05-9.95,24.24-12.76,29.74-1.24,2.45-1.57,3.16-2.35,3.16s-.92-.65-1.51-2.21Z"/><path class="cls-1" d="M217.76,366.06c0-10.21,7.4-23.41,27-23.41,16.29,0,26.43,8.66,26.43,22.33s-10.47,24.48-27.09,24.48C225.35,389.46,217.76,376.62,217.76,366.06Zm44.29,1.13c0-13.37-8.44-21.67-19.17-21.67-7.52,0-16.09,3.82-16.09,18.69,0,12.41,7.52,22.27,20.08,22.27C251.45,386.48,262.05,384.45,262.05,367.19Z"/><path class="cls-1" d="M278.4,366.06c0-10.21,7.39-23.41,27-23.41,16.29,0,26.43,8.66,26.43,22.33s-10.47,24.48-27.08,24.48C286,389.46,278.4,376.62,278.4,366.06Zm44.29,1.13c0-13.37-8.44-21.67-19.17-21.67-7.52,0-16.09,3.82-16.09,18.69,0,12.41,7.52,22.27,20.08,22.27C312.09,386.48,322.69,384.45,322.69,367.19Z"/><path class="cls-1" d="M339.54,360.8c0-9.07,0-10.74-.13-12.66s-.65-3-2.81-3.4a14.65,14.65,0,0,0-2.55-.18c-.72,0-1.11-.12-1.11-.53s.45-.54,1.44-.54c3.46,0,7.58.18,9.42.18,2,0,6.14-.18,10.07-.18,8.18,0,19.1,0,26.23,6.8a20.42,20.42,0,0,1,6.35,15.17,22.72,22.72,0,0,1-7.13,16.66c-3,2.81-9.82,7-21.92,7-2.35,0-5-.17-7.52-.35s-4.78-.36-6.41-.36c-.72,0-2.16,0-3.73.06s-3.2.12-4.51.12c-.85,0-1.31-.18-1.31-.6s.26-.48,1-.48a11.67,11.67,0,0,0,2.36-.24c1.31-.24,1.63-1.55,1.9-3.28.32-2.51.32-7.23.32-12.72Zm8.18,6.57c0,6.33.07,10.93.13,12.06.07,1.5.2,3.88.72,4.54.85,1.13,3.4,2.39,8.57,2.39,6.67,0,11.12-1.2,15.05-4.3,4.18-3.28,5.49-8.72,5.49-14.87,0-7.58-3.47-12.48-6.28-14.92-6-5.26-13.47-6-18.58-6a19,19,0,0,0-4.25.42,1.08,1.08,0,0,0-.78,1.2c-.07,2-.07,7.22-.07,11.94Z"/><path class="cls-1" d="M184.05,49.78c-.08-.52-1.42-1.78-1.79-1.63s-.47,2.3-.79,2.73-.51-1.69-.78-.54a14,14,0,0,0,.42,4.41,17,17,0,0,1-.08,3s-1.46,5.54-1.94,5.64a1.21,1.21,0,0,1-.93-.3,23.85,23.85,0,0,1-2.31-1.27,9.08,9.08,0,0,1-2-1.71A25.43,25.43,0,0,0,171.11,58c-.63-.48-2.7-1.19-3.49-1.74-.43-.3.35-.65.21-.9,3.7,1.37,4.82-5.4,5-6.08s1-1.8-1.77-3.49c-2.05-1.26-5.81-.83-7.11,1.36-.88,1.48,0,4.65-1.12,6-.91,1.08-2.69.73-3.91.61a13.22,13.22,0,0,0-2.77,0,69.32,69.32,0,0,1-7.07-.65c-1.23-.15-7.19-.29-7.73-.2s-1.29,1.07-2.15,2.61a24.37,24.37,0,0,0-1.66,3.87c-.45,1.22-.91,3.06-.91,3.06s-.32,1.2-.7,2.43c-.14.45-.53,1-.67,1.49a5.88,5.88,0,0,0-.07,3c.1.58,1.65,1.31,1.65,1.31l.7-2.2s.16,1.34,0,1.33.3.32.6-.22a6.91,6.91,0,0,0,.51-2.86,11.8,11.8,0,0,1,.2-3.1c.82-3.85,3.08-4.53,5-6.79,2.36,1.63,8.45,1.3,8.45,2.09a60.59,60.59,0,0,1-3.29,10.87A22.7,22.7,0,0,1,146,74.38c-1.18,1.45-2.51,2.74-2.81,4.64-.27,1.72-1.2,2.64-2.21,4a45.83,45.83,0,0,0-3.33,5.38A36.33,36.33,0,0,1,135.15,93a33.5,33.5,0,0,1-4.67,4.76c-2.12,1.9-3.21,4-5.24,6.62-.59.74-1.24,1.42-1.89,2.12-.48.51-.94,1.32-1.62,1.59s-1.36-.48-2.13-.48a1.93,1.93,0,0,0-1.74,1.17c-.68,1.4-.59,3.06-1.13,4.52-.65,1.76-1.85,3.35-1.33,5.31.27,1,.93,2.61,2,3s.42-2.22.6-2.68c.5-1.29,1.69-2.47,2.41-3.66a18.22,18.22,0,0,1,3.44-3.79c2.66-2.42,5.66-4.33,8.43-6.61a28.93,28.93,0,0,1,3.62-2.71,8.58,8.58,0,0,0,3.24-2.47,17.07,17.07,0,0,1,3.33-3.19,35.41,35.41,0,0,0,3.66-3.79c-.92,1.38-.24,3.46-.23,5,0,2.16-1.17,4.08-1.33,6.22,0,.51.23,3.24,1.14,1.8,1-1.65,1.37-3.5,2.69-5s2.55-2.85,3.87-4.13,3.49-1.86,5.32-2.41c3.37-1,7.13-1.06,10.31-2.59,2.46-1.18,5-4.86,3-7.52-.93-1.29-2.59-1.94-3.88-2.8a43.12,43.12,0,0,0-4.79-2.68c-1.4-.69-2.87-1-4.23-1.63-1.81-.84.84-2.57,1.48-3.2s1.35-1.29,2.06-1.9S165,68.42,165,68.42s1.29-1.23,1.92-1.86c1.12-1.13,2.66-1.86,4-1a18.3,18.3,0,0,0,4.39,2.22c2.11.67,4.69,1.94,6.29-.58a15.51,15.51,0,0,0,1.7-4.87c.26-1.81.18-5.79.62-7.56A17,17,0,0,0,184.05,49.78ZM157,88.51c-1.24.81-2.3,1.88-3.58,2.66-2.08,1.25-5.09-.37-6.9,1.15,1.62-1.81,3.42-4.38,5.61-5.53,1.36-.73,2.85-.4,4.31-.32a17.13,17.13,0,0,0,4.35-.34A24.37,24.37,0,0,1,157,88.51Z"/></g></g></svg>